<mxfile host="app.diagrams.net" agent="Mozilla/5.0 (Windows NT 10.0; Win64; x64) AppleWebKit/537.36 (KHTML, like Gecko) Chrome/129.0.0.0 Safari/537.36" version="24.8.0">
  <diagram name="Сторінка-1" id="cjC3Fp-ixmaRGoUOssjb">
    <mxGraphModel grid="1" page="1" gridSize="10" guides="1" tooltips="1" connect="1" arrows="1" fold="1" pageScale="1" pageWidth="827" pageHeight="1169" math="0" shadow="0">
      <root>
        <mxCell id="0" />
        <mxCell id="1" parent="0" />
        <mxCell id="XfvZWy9a3VLxZO9nrXvK-4" style="edgeStyle=orthogonalEdgeStyle;rounded=0;orthogonalLoop=1;jettySize=auto;html=1;exitX=0.5;exitY=1;exitDx=0;exitDy=0;entryX=0.5;entryY=0;entryDx=0;entryDy=0;" edge="1" parent="1" source="XfvZWy9a3VLxZO9nrXvK-1" target="XfvZWy9a3VLxZO9nrXvK-2">
          <mxGeometry relative="1" as="geometry">
            <mxPoint x="105" y="120" as="targetPoint" />
          </mxGeometry>
        </mxCell>
        <mxCell id="XfvZWy9a3VLxZO9nrXvK-1" value="Start" style="ellipse;whiteSpace=wrap;html=1;fillColor=#d5e8d4;strokeColor=#82b366;" vertex="1" parent="1">
          <mxGeometry x="354" y="20" width="120" height="80" as="geometry" />
        </mxCell>
        <mxCell id="XfvZWy9a3VLxZO9nrXvK-8" style="edgeStyle=orthogonalEdgeStyle;rounded=0;orthogonalLoop=1;jettySize=auto;html=1;exitX=0.5;exitY=1;exitDx=0;exitDy=0;" edge="1" parent="1" source="XfvZWy9a3VLxZO9nrXvK-2" target="XfvZWy9a3VLxZO9nrXvK-6">
          <mxGeometry relative="1" as="geometry" />
        </mxCell>
        <mxCell id="XfvZWy9a3VLxZO9nrXvK-2" value="Вас вітає гра Сапер:&lt;br&gt;[1] Розпочати гру&lt;br&gt;[2] Вийти" style="shape=parallelogram;perimeter=parallelogramPerimeter;whiteSpace=wrap;html=1;fixedSize=1;" vertex="1" parent="1">
          <mxGeometry x="339" y="140" width="150" height="60" as="geometry" />
        </mxCell>
        <mxCell id="XfvZWy9a3VLxZO9nrXvK-9" style="edgeStyle=orthogonalEdgeStyle;rounded=0;orthogonalLoop=1;jettySize=auto;html=1;exitX=1;exitY=0.5;exitDx=0;exitDy=0;entryX=0.5;entryY=0;entryDx=0;entryDy=0;" edge="1" parent="1" source="XfvZWy9a3VLxZO9nrXvK-6" target="XfvZWy9a3VLxZO9nrXvK-22">
          <mxGeometry relative="1" as="geometry">
            <mxPoint x="575" y="380" as="targetPoint" />
          </mxGeometry>
        </mxCell>
        <mxCell id="XfvZWy9a3VLxZO9nrXvK-12" style="edgeStyle=orthogonalEdgeStyle;rounded=0;orthogonalLoop=1;jettySize=auto;html=1;" edge="1" parent="1" source="XfvZWy9a3VLxZO9nrXvK-6" target="XfvZWy9a3VLxZO9nrXvK-20">
          <mxGeometry relative="1" as="geometry">
            <mxPoint x="264" y="380" as="targetPoint" />
          </mxGeometry>
        </mxCell>
        <mxCell id="XfvZWy9a3VLxZO9nrXvK-6" value="menu == 1" style="rhombus;whiteSpace=wrap;html=1;" vertex="1" parent="1">
          <mxGeometry x="374" y="230" width="80" height="80" as="geometry" />
        </mxCell>
        <mxCell id="XfvZWy9a3VLxZO9nrXvK-18" style="edgeStyle=orthogonalEdgeStyle;rounded=0;orthogonalLoop=1;jettySize=auto;html=1;" edge="1" parent="1" target="XfvZWy9a3VLxZO9nrXvK-19">
          <mxGeometry relative="1" as="geometry">
            <mxPoint x="575" y="510" as="targetPoint" />
            <mxPoint x="575" y="440" as="sourcePoint" />
          </mxGeometry>
        </mxCell>
        <mxCell id="XfvZWy9a3VLxZO9nrXvK-15" value="Так" style="text;html=1;align=center;verticalAlign=middle;resizable=0;points=[];autosize=1;strokeColor=none;fillColor=none;" vertex="1" parent="1">
          <mxGeometry x="280" y="248" width="40" height="30" as="geometry" />
        </mxCell>
        <mxCell id="XfvZWy9a3VLxZO9nrXvK-17" value="Ні" style="text;html=1;align=center;verticalAlign=middle;resizable=0;points=[];autosize=1;strokeColor=none;fillColor=none;" vertex="1" parent="1">
          <mxGeometry x="485" y="248" width="30" height="30" as="geometry" />
        </mxCell>
        <mxCell id="XfvZWy9a3VLxZO9nrXvK-19" value="Finish" style="ellipse;whiteSpace=wrap;html=1;fillColor=#f8cecc;strokeColor=#b85450;" vertex="1" parent="1">
          <mxGeometry x="515" y="545" width="120" height="80" as="geometry" />
        </mxCell>
        <mxCell id="XfvZWy9a3VLxZO9nrXvK-24" style="edgeStyle=orthogonalEdgeStyle;rounded=0;orthogonalLoop=1;jettySize=auto;html=1;entryX=0.5;entryY=0;entryDx=0;entryDy=0;" edge="1" parent="1" source="XfvZWy9a3VLxZO9nrXvK-20" target="XfvZWy9a3VLxZO9nrXvK-25">
          <mxGeometry relative="1" as="geometry">
            <mxPoint x="260" y="530" as="targetPoint" />
          </mxGeometry>
        </mxCell>
        <mxCell id="XfvZWy9a3VLxZO9nrXvK-20" value="bot = 1 + rand() % 3;" style="rounded=0;whiteSpace=wrap;html=1;" vertex="1" parent="1">
          <mxGeometry x="200" y="360" width="120" height="60" as="geometry" />
        </mxCell>
        <mxCell id="XfvZWy9a3VLxZO9nrXvK-23" value="" style="edgeStyle=orthogonalEdgeStyle;rounded=0;orthogonalLoop=1;jettySize=auto;html=1;exitX=0.5;exitY=1;exitDx=0;exitDy=0;" edge="1" parent="1" source="XfvZWy9a3VLxZO9nrXvK-22" target="XfvZWy9a3VLxZO9nrXvK-19">
          <mxGeometry relative="1" as="geometry">
            <mxPoint x="640" y="420" as="sourcePoint" />
          </mxGeometry>
        </mxCell>
        <mxCell id="XfvZWy9a3VLxZO9nrXvK-22" value="Гру закінчено" style="rounded=0;whiteSpace=wrap;html=1;" vertex="1" parent="1">
          <mxGeometry x="515" y="380" width="120" height="60" as="geometry" />
        </mxCell>
        <mxCell id="XfvZWy9a3VLxZO9nrXvK-28" style="edgeStyle=orthogonalEdgeStyle;rounded=0;orthogonalLoop=1;jettySize=auto;html=1;entryX=0.5;entryY=0;entryDx=0;entryDy=0;" edge="1" parent="1" source="XfvZWy9a3VLxZO9nrXvK-25" target="XfvZWy9a3VLxZO9nrXvK-29">
          <mxGeometry relative="1" as="geometry">
            <mxPoint x="260" y="680" as="targetPoint" />
          </mxGeometry>
        </mxCell>
        <mxCell id="XfvZWy9a3VLxZO9nrXvK-25" value="Бомба замінована, оберіть колір провода який хочете обрізати:" style="shape=parallelogram;perimeter=parallelogramPerimeter;whiteSpace=wrap;html=1;fixedSize=1;" vertex="1" parent="1">
          <mxGeometry x="185" y="510" width="150" height="75" as="geometry" />
        </mxCell>
        <mxCell id="XfvZWy9a3VLxZO9nrXvK-30" style="edgeStyle=orthogonalEdgeStyle;rounded=0;orthogonalLoop=1;jettySize=auto;html=1;exitX=0.5;exitY=1;exitDx=0;exitDy=0;" edge="1" parent="1" source="XfvZWy9a3VLxZO9nrXvK-29" target="XfvZWy9a3VLxZO9nrXvK-31">
          <mxGeometry relative="1" as="geometry">
            <mxPoint x="260" y="830" as="targetPoint" />
          </mxGeometry>
        </mxCell>
        <mxCell id="XfvZWy9a3VLxZO9nrXvK-29" value="[1] Синій [2] Червоний [3] Жовтий [4] Зелений" style="shape=parallelogram;perimeter=parallelogramPerimeter;whiteSpace=wrap;html=1;fixedSize=1;" vertex="1" parent="1">
          <mxGeometry x="170" y="650" width="180" height="80" as="geometry" />
        </mxCell>
        <mxCell id="XfvZWy9a3VLxZO9nrXvK-33" style="edgeStyle=orthogonalEdgeStyle;rounded=0;orthogonalLoop=1;jettySize=auto;html=1;exitX=0.5;exitY=1;exitDx=0;exitDy=0;" edge="1" parent="1" source="XfvZWy9a3VLxZO9nrXvK-31" target="XfvZWy9a3VLxZO9nrXvK-51">
          <mxGeometry relative="1" as="geometry">
            <mxPoint x="270" y="940" as="targetPoint" />
          </mxGeometry>
        </mxCell>
        <mxCell id="XfvZWy9a3VLxZO9nrXvK-31" value="Введіть число від 1 до 4:" style="shape=parallelogram;perimeter=parallelogramPerimeter;whiteSpace=wrap;html=1;fixedSize=1;" vertex="1" parent="1">
          <mxGeometry x="170" y="790" width="180" height="80" as="geometry" />
        </mxCell>
        <mxCell id="XfvZWy9a3VLxZO9nrXvK-34" style="edgeStyle=orthogonalEdgeStyle;rounded=0;orthogonalLoop=1;jettySize=auto;html=1;entryX=0.5;entryY=0;entryDx=0;entryDy=0;" edge="1" parent="1" source="XfvZWy9a3VLxZO9nrXvK-32" target="XfvZWy9a3VLxZO9nrXvK-42">
          <mxGeometry relative="1" as="geometry">
            <mxPoint x="500" y="1000" as="targetPoint" />
          </mxGeometry>
        </mxCell>
        <mxCell id="XfvZWy9a3VLxZO9nrXvK-35" value="Ні" style="edgeLabel;html=1;align=center;verticalAlign=middle;resizable=0;points=[];" connectable="0" vertex="1" parent="XfvZWy9a3VLxZO9nrXvK-34">
          <mxGeometry x="-0.2042" y="7" relative="1" as="geometry">
            <mxPoint x="7" as="offset" />
          </mxGeometry>
        </mxCell>
        <mxCell id="XfvZWy9a3VLxZO9nrXvK-32" value="player == bot" style="rhombus;whiteSpace=wrap;html=1;" vertex="1" parent="1">
          <mxGeometry x="200" y="1010" width="90" height="80" as="geometry" />
        </mxCell>
        <mxCell id="XfvZWy9a3VLxZO9nrXvK-40" style="edgeStyle=orthogonalEdgeStyle;rounded=0;orthogonalLoop=1;jettySize=auto;html=1;entryX=0.5;entryY=0;entryDx=0;entryDy=0;" edge="1" parent="1" source="XfvZWy9a3VLxZO9nrXvK-38" target="XfvZWy9a3VLxZO9nrXvK-39">
          <mxGeometry relative="1" as="geometry" />
        </mxCell>
        <mxCell id="XfvZWy9a3VLxZO9nrXvK-38" value="Вітаю! Ви перемогли, обравши вірний провід!" style="rounded=0;whiteSpace=wrap;html=1;shape=parallelogram;perimeter=parallelogramPerimeter;fixedSize=1;" vertex="1" parent="1">
          <mxGeometry x="35" y="1120" width="150" height="60" as="geometry" />
        </mxCell>
        <mxCell id="XfvZWy9a3VLxZO9nrXvK-63" style="edgeStyle=orthogonalEdgeStyle;rounded=0;orthogonalLoop=1;jettySize=auto;html=1;" edge="1" parent="1" source="XfvZWy9a3VLxZO9nrXvK-39" target="XfvZWy9a3VLxZO9nrXvK-62">
          <mxGeometry relative="1" as="geometry">
            <mxPoint x="110" y="1420" as="targetPoint" />
            <Array as="points">
              <mxPoint x="110" y="1540" />
            </Array>
          </mxGeometry>
        </mxCell>
        <mxCell id="XfvZWy9a3VLxZO9nrXvK-39" value="Ви обрали:&lt;div&gt;Правильний провід:&lt;br&gt;&lt;/div&gt;" style="rounded=0;whiteSpace=wrap;html=1;shape=parallelogram;perimeter=parallelogramPerimeter;fixedSize=1;" vertex="1" parent="1">
          <mxGeometry x="32.5" y="1260" width="155" height="70" as="geometry" />
        </mxCell>
        <mxCell id="XfvZWy9a3VLxZO9nrXvK-43" style="edgeStyle=orthogonalEdgeStyle;rounded=0;orthogonalLoop=1;jettySize=auto;html=1;" edge="1" parent="1" source="XfvZWy9a3VLxZO9nrXvK-42" target="XfvZWy9a3VLxZO9nrXvK-44">
          <mxGeometry relative="1" as="geometry">
            <mxPoint x="478" y="1030" as="targetPoint" />
          </mxGeometry>
        </mxCell>
        <mxCell id="XfvZWy9a3VLxZO9nrXvK-42" value="Ви програли! Але наступного разу точно вдасться!" style="shape=parallelogram;perimeter=parallelogramPerimeter;whiteSpace=wrap;html=1;fixedSize=1;" vertex="1" parent="1">
          <mxGeometry x="339" y="1110" width="156" height="50" as="geometry" />
        </mxCell>
        <mxCell id="XfvZWy9a3VLxZO9nrXvK-64" style="edgeStyle=orthogonalEdgeStyle;rounded=0;orthogonalLoop=1;jettySize=auto;html=1;entryX=0.258;entryY=0.088;entryDx=0;entryDy=0;entryPerimeter=0;exitX=1;exitY=0.75;exitDx=0;exitDy=0;" edge="1" parent="1" source="XfvZWy9a3VLxZO9nrXvK-44" target="XfvZWy9a3VLxZO9nrXvK-62">
          <mxGeometry relative="1" as="geometry">
            <mxPoint x="474" y="1300" as="sourcePoint" />
            <mxPoint x="645.5735931288073" y="1531.7157287525379" as="targetPoint" />
          </mxGeometry>
        </mxCell>
        <mxCell id="XfvZWy9a3VLxZO9nrXvK-44" value="Ви обрали:&lt;br&gt;Правильний провід:" style="shape=parallelogram;perimeter=parallelogramPerimeter;whiteSpace=wrap;html=1;fixedSize=1;" vertex="1" parent="1">
          <mxGeometry x="348" y="1280" width="138" height="60" as="geometry" />
        </mxCell>
        <mxCell id="XfvZWy9a3VLxZO9nrXvK-54" style="edgeStyle=orthogonalEdgeStyle;rounded=0;orthogonalLoop=1;jettySize=auto;html=1;entryX=0.467;entryY=0.113;entryDx=0;entryDy=0;entryPerimeter=0;" edge="1" parent="1" source="XfvZWy9a3VLxZO9nrXvK-51" target="XfvZWy9a3VLxZO9nrXvK-32">
          <mxGeometry relative="1" as="geometry">
            <mxPoint x="280" y="990" as="targetPoint" />
          </mxGeometry>
        </mxCell>
        <mxCell id="XfvZWy9a3VLxZO9nrXvK-55" value="Так" style="edgeLabel;html=1;align=center;verticalAlign=middle;resizable=0;points=[];" connectable="0" vertex="1" parent="XfvZWy9a3VLxZO9nrXvK-54">
          <mxGeometry x="-0.0648" y="-1" relative="1" as="geometry">
            <mxPoint x="1" as="offset" />
          </mxGeometry>
        </mxCell>
        <mxCell id="XfvZWy9a3VLxZO9nrXvK-58" style="edgeStyle=orthogonalEdgeStyle;rounded=0;orthogonalLoop=1;jettySize=auto;html=1;" edge="1" parent="1" source="XfvZWy9a3VLxZO9nrXvK-51" target="XfvZWy9a3VLxZO9nrXvK-60">
          <mxGeometry relative="1" as="geometry">
            <mxPoint x="660" y="943.5" as="targetPoint" />
          </mxGeometry>
        </mxCell>
        <mxCell id="XfvZWy9a3VLxZO9nrXvK-59" value="Ні" style="edgeLabel;html=1;align=center;verticalAlign=middle;resizable=0;points=[];" connectable="0" vertex="1" parent="XfvZWy9a3VLxZO9nrXvK-58">
          <mxGeometry x="-0.1662" y="3" relative="1" as="geometry">
            <mxPoint y="1" as="offset" />
          </mxGeometry>
        </mxCell>
        <mxCell id="XfvZWy9a3VLxZO9nrXvK-51" value="player &amp;gt;0 &amp;amp;&amp;amp; player &amp;lt;5" style="rhombus;whiteSpace=wrap;html=1;" vertex="1" parent="1">
          <mxGeometry x="360" y="900" width="145" height="107" as="geometry" />
        </mxCell>
        <mxCell id="XfvZWy9a3VLxZO9nrXvK-37" value="Так" style="text;html=1;align=center;verticalAlign=middle;resizable=0;points=[];autosize=1;strokeColor=none;fillColor=none;" vertex="1" parent="1">
          <mxGeometry x="145" y="1030" width="40" height="30" as="geometry" />
        </mxCell>
        <mxCell id="XfvZWy9a3VLxZO9nrXvK-57" style="edgeStyle=orthogonalEdgeStyle;rounded=0;orthogonalLoop=1;jettySize=auto;html=1;exitX=0;exitY=0.5;exitDx=0;exitDy=0;entryX=0.56;entryY=0;entryDx=0;entryDy=0;entryPerimeter=0;" edge="1" parent="1" source="XfvZWy9a3VLxZO9nrXvK-32" target="XfvZWy9a3VLxZO9nrXvK-38">
          <mxGeometry relative="1" as="geometry" />
        </mxCell>
        <mxCell id="XfvZWy9a3VLxZO9nrXvK-61" style="edgeStyle=orthogonalEdgeStyle;rounded=0;orthogonalLoop=1;jettySize=auto;html=1;" edge="1" parent="1" source="XfvZWy9a3VLxZO9nrXvK-60" target="XfvZWy9a3VLxZO9nrXvK-62">
          <mxGeometry relative="1" as="geometry">
            <mxPoint x="690" y="1220" as="targetPoint" />
          </mxGeometry>
        </mxCell>
        <mxCell id="XfvZWy9a3VLxZO9nrXvK-60" value="Ви ввели неправильне значення" style="shape=parallelogram;perimeter=parallelogramPerimeter;whiteSpace=wrap;html=1;fixedSize=1;" vertex="1" parent="1">
          <mxGeometry x="610" y="1040" width="160" height="70" as="geometry" />
        </mxCell>
        <mxCell id="XfvZWy9a3VLxZO9nrXvK-62" value="Finish" style="ellipse;whiteSpace=wrap;html=1;fillColor=#f8cecc;strokeColor=#b85450;" vertex="1" parent="1">
          <mxGeometry x="620" y="1500" width="120" height="80" as="geometry" />
        </mxCell>
      </root>
    </mxGraphModel>
  </diagram>
</mxfile>
